<?xml version="1.0" encoding="utf-8"?>
<!-- Generator: Adobe Illustrator 16.0.4, SVG Export Plug-In . SVG Version: 6.00 Build 0)  -->
<!DOCTYPE svg PUBLIC "-//W3C//DTD SVG 1.1//EN" "http://www.w3.org/Graphics/SVG/1.1/DTD/svg11.dtd">
<svg version="1.1" id="gr_x5F_icon09_x5F_richVariables"
	 xmlns="http://www.w3.org/2000/svg" xmlns:xlink="http://www.w3.org/1999/xlink" x="0px" y="0px" width="250px" height="250px"
	 viewBox="0 0 250 250" enable-background="new 0 0 250 250" xml:space="preserve">
<g id="gr_x5F_big_9_">
	<path id="gr_176_" fill="#F3BA48" d="M237.664,172.701c0,9.539-6.76,21.251-15.021,26.019l-82.621,47.702
		c-8.262,4.771-21.78,4.771-30.043,0L27.357,198.72c-8.262-4.768-15.021-16.479-15.021-26.019V77.298
		c0-9.539,6.76-21.25,15.021-26.019l82.621-47.701c8.263-4.771,21.781-4.771,30.043,0l82.621,47.701
		c8.262,4.768,15.021,16.479,15.021,26.019V172.701z"/>
	<path fill="#FFFFFF" d="M97.199,105.894v6.31c0,0.812-0.453,1.172-0.812,1.444l-19.378,11.538l19.378,11.171
		c0.359,0.271,0.812,0.631,0.812,1.443v6.306c0,1.444-1.354,2.166-2.528,1.444L63.4,127.075c-0.447-0.271-0.9-0.99-0.9-1.535v-0.45
		c0-0.541,0.453-1.259,0.9-1.531l31.271-19.106C95.846,103.732,97.199,104.454,97.199,105.894z M137.486,93.457h-6.494
		c-0.719,0-1.44,0.541-1.622,1.168l-17.665,59.665c-0.359,1.263,0.453,2.253,1.621,2.253h6.582c0.631,0,1.443-0.541,1.618-1.172
		l17.574-59.665C139.467,94.448,138.742,93.457,137.486,93.457z M186.601,123.56l-31.271-19.106c-1.175-0.722-2.528,0-2.528,1.44
		v6.31c0,0.812,0.359,1.172,0.812,1.444l19.287,11.538l-19.287,11.171c-0.453,0.271-0.812,0.631-0.812,1.443v6.306
		c0,1.444,1.354,2.166,2.528,1.444l31.271-18.475c0.446-0.271,0.899-0.99,0.899-1.535v-0.45
		C187.5,124.55,187.047,123.832,186.601,123.56z"/>
</g>
</svg>
