<svg xmlns="http://www.w3.org/2000/svg" width="250" height="250"><path d="M125,22c2.231,0,3.689,0.472,4.049,0.647l82.564,47.668c1.598,1.06,3.931,5.103,4.05,7.017v95.334 c-0.119,1.914-2.452,5.956-4.049,7.017l-82.564,47.669c-0.361,0.176-1.819,0.647-4.05,0.647c-2.234,0-3.694-0.474-4.054-0.648 l-82.562-47.669c-1.597-1.061-3.929-5.102-4.048-7.016V77.333c0.119-1.915,2.452-5.957,4.05-7.017l82.564-47.668 C121.312,22.472,122.77,22,125,22 M125,0c-5.445,0-10.891,1.193-15.022,3.579L27.357,51.28 c-8.262,4.768-15.021,16.479-15.021,26.019v95.403c0,9.539,6.76,21.251,15.021,26.019l82.621,47.702 C114.11,248.807,119.555,250,125,250c5.445,0,10.89-1.193,15.021-3.578l82.621-47.702c8.262-4.768,15.021-16.479,15.021-26.019 V77.298c0-9.539-6.76-21.25-15.021-26.019L140.021,3.579C135.891,1.193,130.445,0,125,0L125,0z"/><path d="M95.199,105.894v6.31c0,2.321-1.507,3.461-2.002,3.836l-0.275,0.186l-14.979,8.918l15.252,8.819 c0.496,0.374,2.004,1.514,2.004,3.837v6.306c0,2.651-2.01,4.728-4.575,4.728c-0.876,0-1.749-0.251-2.523-0.727l-31.226-18.448 c-1.411-0.856-2.375-2.542-2.375-4.118v-0.45c0-1.572,0.963-3.256,2.342-4.095l31.265-19.103c0.768-0.472,1.641-0.723,2.518-0.723 C93.19,101.17,95.199,103.245,95.199,105.894z M137.486,90.457h-6.494c-2.051,0-3.945,1.402-4.499,3.317l-17.673,59.695 c-0.429,1.507-0.162,3.049,0.732,4.232c0.883,1.171,2.259,1.842,3.774,1.842h6.582c2.005,0,3.985-1.48,4.496-3.324l17.577-59.674 c0.443-1.525,0.189-3.077-0.696-4.257C140.412,91.124,139.027,90.457,137.486,90.457z M193.165,121l-31.266-19.102 c-0.774-0.476-1.647-0.727-2.524-0.727c-2.564,0-4.574,2.075-4.574,4.724v6.31c0,1.211,0.394,2.891,2.272,4.019l14.914,8.921 l-14.916,8.64c-1.877,1.124-2.271,2.805-2.271,4.017v6.306c0,2.65,2.01,4.728,4.575,4.728c0.877,0,1.749-0.252,2.479-0.7 l31.305-18.494c1.378-0.839,2.34-2.523,2.34-4.098v-0.45C195.5,123.52,194.538,121.837,193.165,121z"/></svg>